<?xml version="1.0" standalone="no"?>
<!DOCTYPE svg PUBLIC "-//W3C//DTD SVG 20010904//EN"
 "http://www.w3.org/TR/2001/REC-SVG-20010904/DTD/svg10.dtd">
<svg version="1.0" xmlns="http://www.w3.org/2000/svg"
 width="331.000000pt" height="18.000000pt" viewBox="0 0 331.000000 18.000000"
 preserveAspectRatio="xMidYMid meet">
<metadata>
Created by potrace 1.15, written by Peter Selinger 2001-2017
</metadata>
<g transform="translate(0.000000,18.000000) scale(0.100000,-0.100000)"
fill="#000000" stroke="none">
<path d="M402 154 c-37 -16 -244 -54 -298 -54 -71 0 -30 -16 69 -28 56 -6 136
-21 177 -33 85 -25 100 -25 375 -10 388 21 1407 50 1820 52 110 0 209 4 220 9
12 5 -63 9 -190 9 -531 2 -1798 42 -2085 66 -36 3 -66 -1 -88 -11z"/>
</g>
</svg>
