<?xml version="1.0" standalone="no"?>
<!DOCTYPE svg PUBLIC "-//W3C//DTD SVG 20010904//EN"
 "http://www.w3.org/TR/2001/REC-SVG-20010904/DTD/svg10.dtd">
<svg version="1.0" xmlns="http://www.w3.org/2000/svg"
 width="388.000000pt" height="14.000000pt" viewBox="0 0 388.000000 14.000000"
 preserveAspectRatio="xMidYMid meet">
<metadata>
Created by potrace 1.15, written by Peter Selinger 2001-2017
</metadata>
<g transform="translate(0.000000,14.000000) scale(0.100000,-0.100000)"
fill="#000000" stroke="none">
<path d="M805 130 c-38 -3 -200 -5 -360 -4 -257 2 -390 -5 -434 -21 -11 -4
-11 -8 0 -22 10 -12 10 -14 2 -9 -8 4 -13 1 -13 -8 0 -14 24 -16 193 -15 105
0 217 -3 247 -6 30 -4 249 -9 485 -10 237 -2 453 -6 480 -9 205 -21 747 -28
1010 -13 140 8 153 8 916 4 378 -3 511 0 523 8 9 7 19 33 22 58 6 43 5 46 -17
52 -13 3 -62 2 -109 -3 -47 -5 -101 -6 -120 -3 -19 3 -93 5 -165 5 -71 -1
-233 -1 -360 -1 -474 0 -562 -1 -655 -7 -52 -4 -124 -8 -160 -11 -74 -5 -522
-5 -590 -1 -263 18 -763 27 -895 16z"/>
</g>
</svg>
