<?xml version="1.0" standalone="no"?>
<!DOCTYPE svg PUBLIC "-//W3C//DTD SVG 20010904//EN"
 "http://www.w3.org/TR/2001/REC-SVG-20010904/DTD/svg10.dtd">
<svg version="1.0" xmlns="http://www.w3.org/2000/svg"
 width="391.000000pt" height="14.000000pt" viewBox="0 0 391.000000 14.000000"
 preserveAspectRatio="xMidYMid meet">
<metadata>
Created by potrace 1.15, written by Peter Selinger 2001-2017
</metadata>
<g transform="translate(0.000000,14.000000) scale(0.100000,-0.100000)"
fill="#000000" stroke="none">
<path d="M23 133 c-20 -7 -16 -88 4 -104 13 -12 134 -14 687 -15 369 0 840 -3
1046 -7 237 -4 423 -3 505 4 72 6 366 15 655 21 958 17 986 18 970 28 -8 5
-37 10 -65 10 -27 0 -57 5 -65 11 -11 7 1 8 41 3 31 -3 67 -2 80 2 21 7 19 9
-21 17 -87 16 -311 22 -895 22 -392 0 -664 -5 -812 -14 -188 -12 -259 -12
-480 0 -142 7 -463 15 -713 17 -605 5 -597 5 -735 1 -66 -2 -136 0 -155 3 -19
4 -41 4 -47 1z"/>
</g>
</svg>
